<svg width="20" height="20" viewBox="0 0 20 20" fill="none" xmlns="http://www.w3.org/2000/svg">
<path d="M15.49 6.69038H13.7209C13.5148 6.69038 13.3187 6.60226 13.1823 6.44889L12.4646 5.64127C12.3578 5.52073 12.2039 5.45215 12.0428 5.45215C11.8818 5.45215 11.7278 5.52115 11.621 5.64127L11.0055 6.33417C10.804 6.5607 10.5149 6.6908 10.2111 6.6908H0.527392C0.251596 7.47389 0.0717653 8.30104 0 9.15896H9.14174C9.30237 9.15896 9.45634 9.0937 9.56732 8.97815L10.4185 8.09322C10.5249 7.98265 10.6718 7.9203 10.8253 7.9203H10.8603C11.0218 7.9203 11.1754 7.9893 11.2822 8.10984L11.9994 8.91746C12.1359 9.07125 12.332 9.15896 12.5381 9.15896H20C19.9282 8.30063 19.7484 7.47348 19.4726 6.6908H15.4896L15.49 6.69038Z" fill="white"/>
<path d="M5.5322 14.3499C5.69283 14.3499 5.8468 14.2847 5.95778 14.1691L6.80895 13.2842C6.91535 13.1736 7.06222 13.1113 7.21576 13.1113H7.25081C7.41228 13.1113 7.56583 13.1803 7.67264 13.3004L8.38988 14.108C8.52631 14.2618 8.72242 14.3495 8.92853 14.3495H19.0408C19.4196 13.5697 19.6971 12.733 19.8623 11.8564H10.1561C9.94994 11.8564 9.75383 11.7683 9.6174 11.6149L8.90016 10.8073C8.79335 10.6867 8.63939 10.6182 8.47833 10.6182C8.31728 10.6182 8.16331 10.6872 8.0565 10.8073L7.44107 11.5002C7.23954 11.7267 6.9504 11.8568 6.64623 11.8568H0.137695C0.302923 12.7334 0.580805 13.5701 0.959242 14.3499H5.53178H5.5322Z" fill="white"/>
<path d="M12.706 3.99361C12.8667 3.99361 13.0206 3.92835 13.1316 3.8128L13.9828 2.92787C14.0892 2.81731 14.2361 2.75496 14.3896 2.75496H14.4246C14.5861 2.75496 14.7397 2.82396 14.8465 2.9445L15.5637 3.75211C15.7001 3.90591 15.8963 3.99361 16.1024 3.99361H18.0254C16.1942 1.56868 13.2814 0 10.0002 0C6.71905 0 3.80629 1.56868 1.97461 3.99361H12.706Z" fill="white"/>
<path d="M8.84318 16.8203H6.21331C6.0072 16.8203 5.81109 16.7321 5.67466 16.5788L4.95742 15.7712C4.85061 15.6506 4.69664 15.582 4.53559 15.582C4.37454 15.582 4.22057 15.651 4.11376 15.7712L3.49833 16.4641C3.2968 16.6906 3.00766 16.8207 2.70349 16.8207H2.6626C4.4947 18.7763 7.1037 20.0004 10.0006 20.0004C12.8975 20.0004 15.5061 18.7763 17.3386 16.8207H8.84318V16.8203Z" fill="white"/>
</svg>
