<svg width="24" height="24" viewBox="0 0 24 24" fill="none" xmlns="http://www.w3.org/2000/svg">
<path d="M18.5881 8.02885H16.4651C16.2178 8.02885 15.9825 7.92311 15.8187 7.73906L14.9576 6.76992C14.8294 6.62527 14.6446 6.54297 14.4514 6.54297C14.2581 6.54297 14.0734 6.62577 13.9452 6.76992L13.2067 7.60139C12.9648 7.87323 12.6178 8.02935 12.2533 8.02935H0.63287C0.301915 8.96906 0.0861184 9.96164 0 10.9911H10.9701C11.1628 10.9911 11.3476 10.9128 11.4808 10.7742L12.5022 9.71225C12.6299 9.57957 12.8061 9.50476 12.9904 9.50476H13.0324C13.2262 9.50476 13.4104 9.58756 13.5386 9.7322L14.3993 10.7013C14.563 10.8859 14.7983 10.9911 15.0457 10.9911H24C23.9139 9.96115 23.6981 8.96856 23.3671 8.02935L18.5881 8.02885Z" fill="#1B1A1E"/>
<path d="M6.63893 17.2203C6.83169 17.2203 7.01645 17.142 7.14963 17.0033L8.17104 15.9414C8.29871 15.8087 8.47495 15.7339 8.65921 15.7339H8.70126C8.89503 15.7339 9.07928 15.8167 9.20746 15.9608L10.0681 16.93C10.2319 17.1145 10.4672 17.2198 10.7145 17.2198H22.8492C23.3038 16.2841 23.6368 15.28 23.8351 14.2281H12.1876C11.9402 14.2281 11.7049 14.1223 11.5412 13.9383L10.6805 12.9691C10.5523 12.8245 10.3676 12.7422 10.1743 12.7422C9.98102 12.7422 9.79627 12.825 9.66809 12.9691L8.92958 13.8006C8.68775 14.0724 8.34077 14.2286 7.97577 14.2286H0.165527C0.3638 15.2805 0.697259 16.2846 1.15138 17.2203H6.63843H6.63893Z" fill="#1B1A1E"/>
<path d="M15.2473 4.79233C15.4401 4.79233 15.6249 4.71402 15.758 4.57536L16.7794 3.51344C16.9071 3.38077 17.0834 3.30595 17.2676 3.30595H17.3097C17.5034 3.30595 17.6877 3.38875 17.8159 3.5334L18.6765 4.50254C18.8403 4.68709 19.0756 4.79233 19.3229 4.79233H21.6306C19.4331 1.88242 15.9378 0 12.0004 0C8.06296 0 4.56765 1.88242 2.36963 4.79233H15.2473Z" fill="#1B1A1E"/>
<path d="M10.612 20.1841H7.45617C7.20883 20.1841 6.97351 20.0784 6.80978 19.8943L5.9491 18.9252C5.82092 18.7805 5.63617 18.6982 5.4429 18.6982C5.24964 18.6982 5.06488 18.781 4.93671 18.9252L4.19819 19.7567C3.95636 20.0285 3.60938 20.1846 3.24438 20.1846H3.19531C5.39384 22.5314 8.52464 24.0003 12.0009 24.0003C15.4772 24.0003 18.6075 22.5314 20.8065 20.1846H10.612V20.1841Z" fill="#1B1A1E"/>
</svg>
