<svg width="20" height="21" viewBox="0 0 20 21" fill="none" xmlns="http://www.w3.org/2000/svg">
<g clip-path="url(#clip0_305_9400)">
<path fill-rule="evenodd" clip-rule="evenodd" d="M10 0.0878906C15.5232 0.0878906 20 4.56465 20 10.0879C20 15.6111 15.5232 20.0879 10 20.0879C4.47676 20.0879 0 15.6111 0 10.0879C0 4.56465 4.47676 0.0878906 10 0.0878906Z" fill="white"/>
<path d="M5.49599 10.0878L5.50321 12.732L7.75 14.0542V15.6022L4.1883 13.5133V9.31458L5.49599 10.0878ZM5.49599 7.44358V8.98445L4.1875 8.21041V6.66955L5.49599 5.89551L6.8109 6.66955L5.49599 7.44358ZM8.6883 6.66955L9.99679 5.89551L11.3117 6.66955L9.99679 7.44358L8.6883 6.66955Z" fill="black"/>
<path d="M6.44141 12.184V10.6359L7.7499 11.4099V12.9508L6.44141 12.184ZM8.6882 14.6086L9.99669 15.3827L11.3116 14.6086V16.1495L9.99669 16.9236L8.6882 16.1495V14.6086ZM13.1882 6.66955L14.4967 5.89551L15.8116 6.66955V8.21041L14.4967 8.98445V7.44358L13.1882 6.66955ZM14.4967 12.732L14.5039 10.0878L15.8124 9.31378V13.5125L12.2507 15.6014V14.0534L14.4967 12.732Z" fill="black"/>
<path d="M13.5585 12.1838L12.25 12.9506V11.4098L13.5585 10.6357V12.1838Z" fill="black"/>
<path d="M13.5584 7.99154L13.5656 9.53961L11.3124 10.8617V13.5124L10.0039 14.2792L8.69541 13.5124V10.8617L6.44221 9.53961V7.99154L7.75631 7.2175L9.99589 8.54602L12.2491 7.2175L13.564 7.99154H13.5584ZM6.44141 5.34811L9.99669 3.25195L13.5584 5.34811L12.2499 6.12215L9.99669 4.79362L7.7499 6.12215L6.44141 5.34811Z" fill="black"/>
</g>
<defs>
<clipPath id="clip0_305_9400">
<rect width="20" height="20" fill="white" transform="translate(0 0.0878906)"/>
</clipPath>
</defs>
</svg>
