<svg width="20" height="20" viewBox="0 0 20 20" fill="none" xmlns="http://www.w3.org/2000/svg">
<g clip-path="url(#clip0_160_9883)">
<path d="M16.0266 1.02222L11.8535 7.22222C11.5649 7.64444 12.1199 8.15556 12.5194 7.8L16.626 4.22222C16.737 4.13333 16.8923 4.2 16.8923 4.35556V15.5333C16.8923 15.6889 16.6926 15.7556 16.6038 15.6444L4.17314 0.755556C3.77358 0.266667 3.19645 0 2.55272 0H2.10877C0.954495 0 0 0.955556 0 2.13333V17.8667C0 19.0444 0.954495 20 2.13097 20C2.86349 20 3.55161 19.6222 3.95117 18.9778L8.12431 12.7778C8.41287 12.3556 7.85793 11.8444 7.45838 12.2L3.35183 15.7556C3.24084 15.8444 3.08546 15.7778 3.08546 15.6222V4.46667C3.08546 4.31111 3.28524 4.24444 3.37403 4.35556L15.8047 19.2444C16.2042 19.7333 16.8036 20 17.4251 20H17.869C19.0455 20 20 19.0444 20 17.8667V2.13333C20 0.955556 19.0455 0 17.869 0C17.1143 0 16.4262 0.377778 16.0266 1.02222Z" fill="white"/>
</g>
<defs>
<clipPath id="clip0_160_9883">
<rect width="20" height="20" fill="white"/>
</clipPath>
</defs>
</svg>
