<svg width="58" height="58" viewBox="0 0 58 58" fill="none" xmlns="http://www.w3.org/2000/svg">
<rect width="58" height="58" rx="20" fill="#3D5AF1"/>
<path fill-rule="evenodd" clip-rule="evenodd" d="M12.0684 19.4626L28.7151 13.8955L44.9119 19.4626V21.7349L30.2898 27.302L28.0528 31.0164L30.4024 31.9603L45.0245 26.3933V29.9153L30.2899 35.4824L29.7275 35.2552L26.3273 33.8814L22.0789 40.9357L18.5921 39.5723L12.0684 19.4626ZM24.733 29.6827L20.5043 27.9839L21.8541 32.074L23.1847 32.6116L21.0666 36.6183L16.1176 21.6213L28.7151 17.4175L38.5007 20.7124L27.2529 24.9161L24.733 29.6827ZM45.0237 34.5738L30.2891 40.1409V43.663L45.0237 38.0959V34.5738Z" fill="white"/>
</svg>
