<svg width="38" height="38" viewBox="0 0 38 38" fill="none" xmlns="http://www.w3.org/2000/svg">
<circle cx="19" cy="19" r="19" fill="#3532BF"/>
<path d="M31.1359 7.35937L23.3016 2.72346C20.828 1.2625 17.7624 1.23801 15.2645 2.65817L7.36525 7.17165C4.86734 8.59996 3.31832 11.2525 3.29399 14.1418L3.22099 23.2831C3.19666 26.1723 4.71325 28.8576 7.18683 30.3185L15.0212 34.9544C17.4948 36.4154 20.5604 36.4399 23.0583 35.0197L30.9575 30.5062C33.4554 29.0779 35.0045 26.4253 35.0288 23.5361L35.1018 14.3948C35.1261 11.5056 33.6095 8.82033 31.1359 7.35937Z" fill="#4A3CE8"/>
<path fill-rule="evenodd" clip-rule="evenodd" d="M20.1654 23.067L20.1149 28.0169L22.4719 27.1319V21.9122L24.883 26.2378L27.2218 20.1331V25.3348L29.1363 24.6394V17.5504L25.4067 18.9592L24.6301 21.3703L23.6548 19.6184L20.2028 20.9219L18.8055 20.3683L20.1781 18.1197L29.1272 14.7422V13.3606L19.2119 9.98311L9.0166 13.3606L13.008 25.5519L15.1392 26.3827L17.7399 22.1022L19.826 22.933L20.1654 23.067ZM14.5182 23.734L11.4909 14.661L19.2029 12.1143L25.19 14.1101L18.2998 16.6567L16.7556 19.5465L14.1639 18.517L14.9947 21.0004L15.8074 21.3255L14.5182 23.734Z" fill="#F5F5F5"/>
</svg>
