<svg width="38" height="38" viewBox="0 0 38 38" fill="none" xmlns="http://www.w3.org/2000/svg">
<circle cx="19" cy="19" r="19" fill="#B7B8CF"/>
<path d="M30.838 7.64208L22.9968 3.03953C20.5211 1.58652 17.4528 1.56217 14.9527 2.97459L7.0466 7.45538C4.54651 8.87592 2.98801 11.5222 2.97178 14.3957L2.89873 23.4872C2.87437 26.3607 4.39228 29.0314 6.86802 30.4844L14.7092 35.095C17.1849 36.548 20.2532 36.5724 22.7533 35.16L30.6594 30.6711C33.1595 29.2505 34.7099 26.6124 34.7342 23.7388L34.8073 14.6474C34.8316 11.7738 33.3137 9.10321 30.838 7.6502V7.64208Z" fill="#CACBE9"/>
<path d="M19.8857 27.8394L28.6614 24.5539V22.4807L19.8857 25.7662V27.8394Z" fill="#F5F5F5"/>
<path d="M19.9561 20.9346L18.5594 20.3811L19.8946 18.1937L28.6 14.9083V13.5642L18.9547 10.2788L9.03711 13.5642L12.9198 25.4235L14.9929 26.2317L17.5229 22.0678L19.5521 22.876L19.8859 23.0077L28.6615 19.7223V17.6491L19.9561 20.9346ZM14.3956 23.6841L11.444 14.838L18.9459 12.3607L24.77 14.3021L18.0675 16.7794L16.5654 19.5905L14.0442 18.5891L14.8524 21.0048L15.643 21.3211L14.378 23.6841H14.3956Z" fill="#F5F5F5"/>
</svg>
