<svg width="131" height="91" viewBox="0 0 131 91" fill="none" xmlns="http://www.w3.org/2000/svg">
<path d="M37.3817 29H45.0317C50.7067 29 54.5817 25.5 54.5817 20.25C54.5817 15 50.7067 11.5 45.0317 11.5H37.3817V29ZM40.6317 26.25V14.25H44.8817C48.7817 14.25 51.3067 16.625 51.3067 20.25C51.3067 23.875 48.7817 26.25 44.8817 26.25H40.6317ZM71.3919 29H74.7919L66.8919 11.5H63.6919L55.8169 29H59.1669L60.8919 24.95H69.6419L71.3919 29ZM61.9919 22.4L65.2669 14.75L68.5669 22.4H61.9919ZM85.4483 29.25C90.8733 29.25 94.8733 25.45 94.8733 20.25C94.8733 15.05 90.8733 11.25 85.4483 11.25C80.0233 11.25 76.0233 15.075 76.0233 20.25C76.0233 25.425 80.0233 29.25 85.4483 29.25ZM85.4483 26.4C81.9233 26.4 79.2983 23.825 79.2983 20.25C79.2983 16.675 81.9233 14.1 85.4483 14.1C88.9733 14.1 91.5983 16.675 91.5983 20.25C91.5983 23.825 88.9733 26.4 85.4483 26.4Z" fill="white"/>
<path fill-rule="evenodd" clip-rule="evenodd" d="M57.4416 72.2114H33.9275C31.4082 72.2114 29.2247 71.8755 27.0413 71.2037C25.0258 70.5318 23.1783 69.3561 21.6667 68.0125C20.155 66.6688 18.9793 64.8213 18.1396 62.9738C17.2998 60.9583 16.7959 58.6069 16.7959 56.0875C16.7959 53.7361 17.2998 51.5527 18.1396 49.5372C18.9793 47.5217 20.323 45.8421 21.8346 44.3305C23.3462 42.8189 25.1938 41.8111 27.2093 40.9714C29.2247 40.1316 31.4082 39.7957 33.9275 39.7957C36.2789 39.7957 38.4624 40.1316 40.6458 40.9714C42.8293 41.8111 44.5089 42.8189 46.0205 44.3305C47.5321 45.8421 48.7078 47.5217 49.5476 49.5372C50.3874 51.5527 50.8912 53.7361 50.8912 56.0875C50.8912 57.1309 50.7589 58.042 50.6118 59.0557L50.6116 59.057C50.593 59.1851 50.5742 59.3148 50.5553 59.4467C50.3874 60.4544 49.8835 61.4621 49.3796 62.4699C48.8757 63.4776 48.2039 64.3174 47.3641 64.9892C46.5243 65.6611 45.6846 66.3329 44.5089 66.8368V67.0047H55.4261L57.4416 72.2114ZM23.8501 55.9196C23.8501 57.2632 24.186 58.6069 24.6899 59.7826C25.1938 60.9583 25.8656 61.966 26.7054 62.9738C27.5452 63.8135 28.5529 64.4854 29.7286 64.9892C30.9043 65.4931 32.08 65.829 33.4237 65.829C34.7673 65.829 35.943 65.4931 37.1187 64.9892C38.2944 64.4854 39.3022 63.8135 40.142 62.9738C40.9818 62.134 41.8215 60.9583 42.3254 59.7826C42.8293 58.6069 43.1652 57.2632 43.1652 55.9196C43.1652 54.5759 42.8293 53.2322 42.3254 52.0565C41.8215 50.8808 41.1497 49.8731 40.142 49.0333C39.3022 48.1935 38.2944 47.3537 37.1187 46.8499C35.943 46.346 34.7673 46.0101 33.4237 46.0101C32.08 46.0101 30.9043 46.346 29.7286 46.8499C28.5529 47.3537 27.5452 48.0256 26.7054 49.0333C25.8656 49.8731 25.1938 50.8808 24.6899 52.0565C24.186 53.2322 23.8501 54.5759 23.8501 55.9196ZM53.4101 40.4681H61.472L69.366 61.2948H69.534L77.5959 40.4681H85.154L72.0533 72.212H66.5108L53.4101 40.4681ZM113.371 40.4681H97.079L94.3631 46.8505H88.8491L86.3297 52.729H91.8616L89.0742 59.2793H83.8104L81.123 65.6617H86.3583L83.6424 72.0441H110.348L113.035 65.6617H86.3583L89.0742 59.2793H105.645L108.164 52.729H91.8616L94.3631 46.8505H110.684L113.371 40.4681Z" fill="white"/>
</svg>
