<svg width="53" height="47" viewBox="0 0 53 47" fill="none" xmlns="http://www.w3.org/2000/svg">
<path fill-rule="evenodd" clip-rule="evenodd" d="M0.398682 8.8602L26.8216 0.112061L52.5304 8.8602V12.4309L29.3211 21.179L25.7701 27.0162L29.4988 28.4992L52.7082 19.751V25.2856L29.3203 34.0337L28.4276 33.6766L23.0314 31.5182L16.2882 42.603L10.7536 40.4606L0.398682 8.8602ZM20.5008 24.9204L13.7879 22.2505L15.9303 28.6777L18.0432 29.5229L14.6814 35.8187L6.82589 12.2523L26.8216 5.6466L42.354 10.8241L24.5007 17.4298L20.5008 24.9204ZM52.7087 32.6053L29.3208 41.3534V46.888L52.7087 38.1398V32.6053Z" fill="url(#paint0_linear_1_62)"/>
<defs>
<linearGradient id="paint0_linear_1_62" x1="26.5536" y1="0.112061" x2="26.5536" y2="46.888" gradientUnits="userSpaceOnUse">
<stop stop-color="#3A3C61"/>
<stop offset="1" stop-color="#7A7BA7"/>
</linearGradient>
</defs>
</svg>
