<svg width="24" height="20" viewBox="0 0 24 20" fill="none" xmlns="http://www.w3.org/2000/svg">
<path fill-rule="evenodd" clip-rule="evenodd" d="M24.0002 0.708398L20.2042 19.1669C20.2042 19.1669 19.673 20.4473 18.2134 19.8328L12.8126 15.8393L12.8127 15.8391L9.46698 13.317L9.48101 13.2016C9.48101 13.2016 19.196 4.7792 19.5941 4.42052C19.9923 4.06184 19.8593 3.98504 19.8593 3.98504C19.8856 3.54955 19.1426 3.98504 19.1426 3.98504L6.26949 11.8706L6.26985 11.8717L6.26874 11.8712L0.907185 10.1301C0.907185 10.1301 0.0845967 9.84818 0.00496569 9.23374C-0.0746653 8.6193 0.93426 8.28674 0.93426 8.28674L22.2483 0.221454C22.2483 0.221454 24.0002 -0.521249 24.0002 0.70763V0.708398Z" fill="#3F3F46"/>
</svg>
