<svg width="24" height="20" viewBox="0 0 24 20" fill="none" xmlns="http://www.w3.org/2000/svg">
<g clip-path="url(#clip0_1_5013)">
<path fill-rule="evenodd" clip-rule="evenodd" d="M24.0002 0.708642L20.2042 19.1672C20.2042 19.1672 19.673 20.4475 18.2134 19.8331L12.8126 15.8395L12.8127 15.8394L9.46698 13.3173L9.48101 13.2019C9.48101 13.2019 19.196 4.77944 19.5941 4.42077C19.9923 4.06209 19.8593 3.98528 19.8593 3.98528C19.8856 3.5498 19.1426 3.98528 19.1426 3.98528L6.26949 11.8708L6.26985 11.872L6.26874 11.8715L0.907185 10.1303C0.907185 10.1303 0.0845967 9.84843 0.00496569 9.23399C-0.0746653 8.61955 0.93426 8.28698 0.93426 8.28698L22.2483 0.221699C22.2483 0.221699 24.0002 -0.521005 24.0002 0.707874V0.708642Z" fill="#B7B8CD"/>
</g>
<defs>
<clipPath id="clip0_1_5013">
<rect width="24" height="20" fill="white"/>
</clipPath>
</defs>
</svg>
