<svg width="406" height="616" viewBox="0 0 406 616" fill="none" xmlns="http://www.w3.org/2000/svg">
<g opacity="0.9">
<g filter="url(#filter0_bd_66_5135)">
<path d="M241.01 402.866C241.01 402.866 232.392 300.238 252.051 279.103C271.711 257.969 328.267 215.813 343.646 186.056C359.024 156.299 376.261 100.674 394.456 69.9584C412.651 39.2433 388.485 37.6089 375.529 54.629C362.573 71.6492 347.025 92.0508 342.913 104.055C342.913 104.055 338.125 68.7749 344.378 38.3416C350.631 7.90819 350.349 5.25936 346.518 1.65244C342.688 -1.95448 329.844 7.17553 327.366 15.0657C327.366 15.0657 305.059 12.5295 296.102 51.4166C296.102 51.4166 289.73 48.1704 281.664 56.2364C275.902 61.9979 270.978 74.4671 269.176 96.7285C267.373 118.99 255.149 135.559 251.544 152.129C251.544 152.129 219.44 168.009 195.101 187.747C168.512 211.868 152.607 225.047 158.368 263.649C165.162 309.165 153.759 353.528 141.084 396.739C141.084 396.739 140.403 421.576 188.96 421.576C237.518 421.576 241.517 408.614 241.123 402.866H241.01Z" fill="url(#paint0_radial_66_5135)" shape-rendering="crispEdges"/>
<path d="M241.01 402.866C241.01 402.866 232.392 300.238 252.051 279.103C271.711 257.969 328.267 215.813 343.646 186.056C359.024 156.299 376.261 100.674 394.456 69.9584C412.651 39.2433 388.485 37.6089 375.529 54.629C362.573 71.6492 347.025 92.0508 342.913 104.055C342.913 104.055 338.125 68.7749 344.378 38.3416C350.631 7.90819 350.349 5.25936 346.518 1.65244C342.688 -1.95448 329.844 7.17553 327.366 15.0657C327.366 15.0657 305.059 12.5295 296.102 51.4166C296.102 51.4166 289.73 48.1704 281.664 56.2364C275.902 61.9979 270.978 74.4671 269.176 96.7285C267.373 118.99 255.149 135.559 251.544 152.129C251.544 152.129 219.44 168.009 195.101 187.747C168.512 211.868 152.607 225.047 158.368 263.649C165.162 309.165 153.759 353.528 141.084 396.739C141.084 396.739 140.403 421.576 188.96 421.576C237.518 421.576 241.517 408.614 241.123 402.866H241.01Z" stroke="url(#paint1_linear_66_5135)" stroke-miterlimit="10" stroke-linejoin="round" shape-rendering="crispEdges"/>
<path d="M241.01 402.866C241.01 402.866 232.392 300.238 252.051 279.103C271.711 257.969 328.267 215.813 343.646 186.056C359.024 156.299 376.261 100.674 394.456 69.9584C412.651 39.2433 388.485 37.6089 375.529 54.629C362.573 71.6492 347.025 92.0508 342.913 104.055C342.913 104.055 338.125 68.7749 344.378 38.3416C350.631 7.90819 350.349 5.25936 346.518 1.65244C342.688 -1.95448 329.844 7.17553 327.366 15.0657C327.366 15.0657 305.059 12.5295 296.102 51.4166C296.102 51.4166 289.73 48.1704 281.664 56.2364C275.902 61.9979 270.978 74.4671 269.176 96.7285C267.373 118.99 255.149 135.559 251.544 152.129C251.544 152.129 219.44 168.009 195.101 187.747C168.512 211.868 152.607 225.047 158.368 263.649C165.162 309.165 153.759 353.528 141.084 396.739C141.084 396.739 140.403 421.576 188.96 421.576C237.518 421.576 241.517 408.614 241.123 402.866H241.01Z" stroke="url(#paint2_linear_66_5135)" stroke-opacity="0.2" stroke-miterlimit="10" stroke-linejoin="round" shape-rendering="crispEdges"/>
</g>
<path d="M251.432 152.185C251.432 152.185 292.441 130.769 318.128 112.452C342.4 95.1451 347.815 107.042 347.589 108.845C347.364 110.649 344.378 134.376 281.626 180.251" stroke="url(#paint3_linear_66_5135)" stroke-miterlimit="10" stroke-linejoin="round"/>
<path d="M251.432 152.185C251.432 152.185 292.441 130.769 318.128 112.452C342.4 95.1451 347.815 107.042 347.589 108.845C347.364 110.649 344.378 134.376 281.626 180.251" stroke="url(#paint4_linear_66_5135)" stroke-opacity="0.2" stroke-miterlimit="10" stroke-linejoin="round"/>
<path d="M296.046 51.4164C296.046 51.4164 289.906 73.8469 287.991 88.4436C286.076 103.04 285.85 118.426 278.865 131.388" stroke="url(#paint5_linear_66_5135)" stroke-miterlimit="10"/>
<path d="M296.046 51.4164C296.046 51.4164 289.906 73.8469 287.991 88.4436C286.076 103.04 285.85 118.426 278.865 131.388" stroke="url(#paint6_linear_66_5135)" stroke-opacity="0.2" stroke-miterlimit="10"/>
<path d="M327.31 15.1218C327.31 15.1218 318.184 28.3096 314.579 54.6852C310.974 81.0608 309.904 109.86 306.129 120.511" stroke="url(#paint7_linear_66_5135)" stroke-miterlimit="10"/>
<path d="M327.31 15.1218C327.31 15.1218 318.184 28.3096 314.579 54.6852C310.974 81.0608 309.904 109.86 306.129 120.511" stroke="url(#paint8_linear_66_5135)" stroke-opacity="0.2" stroke-miterlimit="10"/>
</g>
<g filter="url(#filter1_bd_66_5135)">
<path d="M190.119 585.763C190.119 585.763 200.092 467.016 177.344 442.562C154.597 418.108 89.1574 369.331 71.3636 334.9C53.5697 300.469 33.625 236.107 12.5722 200.567C-8.48056 165.027 19.4812 163.136 34.4724 182.83C49.4635 202.523 67.4529 226.129 72.2109 240.019C72.2109 240.019 77.7511 199.198 70.5163 163.984C63.2814 128.771 63.6073 125.706 68.0394 121.532C72.4716 117.359 87.3324 127.923 90.2003 137.052C90.2003 137.052 116.011 134.118 126.375 179.113C126.375 179.113 133.748 175.357 143.081 184.69C149.747 191.356 155.444 205.784 157.53 231.542C159.616 257.3 173.76 276.472 177.931 295.643C177.931 295.643 215.078 314.018 243.24 336.856C274.005 364.766 292.408 380.015 285.742 424.68C277.882 477.345 291.075 528.676 305.742 578.675C305.742 578.675 306.529 607.413 250.345 607.413C194.161 607.413 189.533 592.415 189.989 585.763H190.119Z" fill="url(#paint9_radial_66_5135)" shape-rendering="crispEdges"/>
<path d="M190.119 585.763C190.119 585.763 200.092 467.016 177.344 442.562C154.597 418.108 89.1574 369.331 71.3636 334.9C53.5697 300.469 33.625 236.107 12.5722 200.567C-8.48056 165.027 19.4812 163.136 34.4724 182.83C49.4635 202.523 67.4529 226.129 72.2109 240.019C72.2109 240.019 77.7511 199.198 70.5163 163.984C63.2814 128.771 63.6073 125.706 68.0394 121.532C72.4716 117.359 87.3324 127.923 90.2003 137.052C90.2003 137.052 116.011 134.118 126.375 179.113C126.375 179.113 133.748 175.357 143.081 184.69C149.747 191.356 155.444 205.784 157.53 231.542C159.616 257.3 173.76 276.472 177.931 295.643C177.931 295.643 215.078 314.018 243.24 336.856C274.005 364.766 292.408 380.015 285.742 424.68C277.882 477.345 291.075 528.676 305.742 578.675C305.742 578.675 306.529 607.413 250.345 607.413C194.161 607.413 189.533 592.415 189.989 585.763H190.119Z" stroke="url(#paint10_linear_66_5135)" stroke-miterlimit="10" stroke-linejoin="round" shape-rendering="crispEdges"/>
<path d="M190.119 585.763C190.119 585.763 200.092 467.016 177.344 442.562C154.597 418.108 89.1574 369.331 71.3636 334.9C53.5697 300.469 33.625 236.107 12.5722 200.567C-8.48056 165.027 19.4812 163.136 34.4724 182.83C49.4635 202.523 67.4529 226.129 72.2109 240.019C72.2109 240.019 77.7511 199.198 70.5163 163.984C63.2814 128.771 63.6073 125.706 68.0394 121.532C72.4716 117.359 87.3324 127.923 90.2003 137.052C90.2003 137.052 116.011 134.118 126.375 179.113C126.375 179.113 133.748 175.357 143.081 184.69C149.747 191.356 155.444 205.784 157.53 231.542C159.616 257.3 173.76 276.472 177.931 295.643C177.931 295.643 215.078 314.018 243.24 336.856C274.005 364.766 292.408 380.015 285.742 424.68C277.882 477.345 291.075 528.676 305.742 578.675C305.742 578.675 306.529 607.413 250.345 607.413C194.161 607.413 189.533 592.415 189.989 585.763H190.119Z" stroke="url(#paint11_linear_66_5135)" stroke-opacity="0.2" stroke-miterlimit="10" stroke-linejoin="round" shape-rendering="crispEdges"/>
</g>
<path d="M178.062 295.708C178.062 295.708 130.611 270.928 100.89 249.735C72.8057 229.709 66.5405 243.475 66.8012 245.562C67.0619 247.648 70.5164 275.102 143.126 328.183" stroke="url(#paint12_linear_66_5135)" stroke-miterlimit="10" stroke-linejoin="round"/>
<path d="M178.062 295.708C178.062 295.708 130.611 270.928 100.89 249.735C72.8057 229.709 66.5405 243.475 66.8012 245.562C67.0619 247.648 70.5164 275.102 143.126 328.183" stroke="url(#paint13_linear_66_5135)" stroke-opacity="0.2" stroke-miterlimit="10" stroke-linejoin="round"/>
<path d="M126.439 179.113C126.439 179.113 133.544 205.066 135.76 221.956C137.976 238.845 138.237 256.647 146.319 271.646" stroke="url(#paint14_linear_66_5135)" stroke-miterlimit="10"/>
<path d="M126.439 179.113C126.439 179.113 133.544 205.066 135.76 221.956C137.976 238.845 138.237 256.647 146.319 271.646" stroke="url(#paint15_linear_66_5135)" stroke-opacity="0.2" stroke-miterlimit="10"/>
<path d="M90.2657 137.117C90.2657 137.117 100.825 152.377 104.996 182.895C109.168 213.413 110.406 246.736 114.773 259.06" stroke="url(#paint16_linear_66_5135)" stroke-miterlimit="10"/>
<path d="M90.2657 137.117C90.2657 137.117 100.825 152.377 104.996 182.895C109.168 213.413 110.406 246.736 114.773 259.06" stroke="url(#paint17_linear_66_5135)" stroke-opacity="0.2" stroke-miterlimit="10"/>
<defs>
<filter id="filter0_bd_66_5135" x="110.583" y="-29.6584" width="320.917" height="481.735" filterUnits="userSpaceOnUse" color-interpolation-filters="sRGB">
<feFlood flood-opacity="0" result="BackgroundImageFix"/>
<feGaussianBlur in="BackgroundImageFix" stdDeviation="15"/>
<feComposite in2="SourceAlpha" operator="in" result="effect1_backgroundBlur_66_5135"/>
<feColorMatrix in="SourceAlpha" type="matrix" values="0 0 0 0 0 0 0 0 0 0 0 0 0 0 0 0 0 0 127 0" result="hardAlpha"/>
<feOffset dy="4"/>
<feGaussianBlur stdDeviation="2"/>
<feComposite in2="hardAlpha" operator="out"/>
<feColorMatrix type="matrix" values="0 0 0 0 0 0 0 0 0 0 0 0 0 0 0 0 0 0 0.25 0"/>
<feBlend mode="normal" in2="effect1_backgroundBlur_66_5135" result="effect2_dropShadow_66_5135"/>
<feBlend mode="normal" in="SourceGraphic" in2="effect2_dropShadow_66_5135" result="shape"/>
</filter>
<filter id="filter1_bd_66_5135" x="-25.4995" y="90.094" width="361.742" height="547.819" filterUnits="userSpaceOnUse" color-interpolation-filters="sRGB">
<feFlood flood-opacity="0" result="BackgroundImageFix"/>
<feGaussianBlur in="BackgroundImageFix" stdDeviation="15"/>
<feComposite in2="SourceAlpha" operator="in" result="effect1_backgroundBlur_66_5135"/>
<feColorMatrix in="SourceAlpha" type="matrix" values="0 0 0 0 0 0 0 0 0 0 0 0 0 0 0 0 0 0 127 0" result="hardAlpha"/>
<feOffset dy="4"/>
<feGaussianBlur stdDeviation="2"/>
<feComposite in2="hardAlpha" operator="out"/>
<feColorMatrix type="matrix" values="0 0 0 0 0 0 0 0 0 0 0 0 0 0 0 0 0 0 0.25 0"/>
<feBlend mode="normal" in2="effect1_backgroundBlur_66_5135" result="effect2_dropShadow_66_5135"/>
<feBlend mode="normal" in="SourceGraphic" in2="effect2_dropShadow_66_5135" result="shape"/>
</filter>
<radialGradient id="paint0_radial_66_5135" cx="0" cy="0" r="1" gradientUnits="userSpaceOnUse" gradientTransform="translate(280.512 30.3096) rotate(93.2544) scale(466.856 467.061)">
<stop stop-color="white" stop-opacity="0.4"/>
<stop offset="1" stop-color="white" stop-opacity="0"/>
</radialGradient>
<linearGradient id="paint1_linear_66_5135" x1="273.598" y1="-5.41147" x2="162.978" y2="467.029" gradientUnits="userSpaceOnUse">
<stop stop-color="white"/>
<stop offset="1" stop-color="white" stop-opacity="0"/>
</linearGradient>
<linearGradient id="paint2_linear_66_5135" x1="232.692" y1="66.0308" x2="140.508" y2="497.565" gradientUnits="userSpaceOnUse">
<stop stop-color="white" stop-opacity="0.6"/>
<stop offset="1" stop-color="white" stop-opacity="0"/>
</linearGradient>
<linearGradient id="paint3_linear_66_5135" x1="299.514" y1="103.184" x2="299.514" y2="180.251" gradientUnits="userSpaceOnUse">
<stop stop-color="white" stop-opacity="0.6"/>
<stop offset="1" stop-color="white" stop-opacity="0"/>
</linearGradient>
<linearGradient id="paint4_linear_66_5135" x1="299.514" y1="103.184" x2="299.514" y2="180.251" gradientUnits="userSpaceOnUse">
<stop stop-color="white" stop-opacity="0.2"/>
<stop offset="1" stop-color="white" stop-opacity="0"/>
</linearGradient>
<linearGradient id="paint5_linear_66_5135" x1="287.456" y1="51.4164" x2="287.456" y2="131.388" gradientUnits="userSpaceOnUse">
<stop stop-color="white" stop-opacity="0.6"/>
<stop offset="1" stop-color="white" stop-opacity="0"/>
</linearGradient>
<linearGradient id="paint6_linear_66_5135" x1="287.456" y1="51.4164" x2="287.456" y2="131.388" gradientUnits="userSpaceOnUse">
<stop stop-color="white" stop-opacity="0.2"/>
<stop offset="1" stop-color="white" stop-opacity="0"/>
</linearGradient>
<linearGradient id="paint7_linear_66_5135" x1="316.72" y1="15.1218" x2="316.72" y2="120.511" gradientUnits="userSpaceOnUse">
<stop stop-color="white" stop-opacity="0.6"/>
<stop offset="1" stop-color="white" stop-opacity="0"/>
</linearGradient>
<linearGradient id="paint8_linear_66_5135" x1="316.72" y1="15.1218" x2="316.72" y2="120.511" gradientUnits="userSpaceOnUse">
<stop stop-color="white" stop-opacity="0.2"/>
<stop offset="1" stop-color="white" stop-opacity="0"/>
</linearGradient>
<radialGradient id="paint9_radial_66_5135" cx="0" cy="0" r="1" gradientUnits="userSpaceOnUse" gradientTransform="translate(144.414 154.691) rotate(86.7456) scale(540.184 540.421)">
<stop stop-color="white" stop-opacity="0.4"/>
<stop offset="1" stop-color="white" stop-opacity="0"/>
</radialGradient>
<linearGradient id="paint10_linear_66_5135" x1="152.413" y1="113.359" x2="280.409" y2="660.005" gradientUnits="userSpaceOnUse">
<stop stop-color="white"/>
<stop offset="1" stop-color="white" stop-opacity="0"/>
</linearGradient>
<linearGradient id="paint11_linear_66_5135" x1="199.745" y1="196.022" x2="306.408" y2="695.337" gradientUnits="userSpaceOnUse">
<stop stop-color="white" stop-opacity="0.6"/>
<stop offset="1" stop-color="white" stop-opacity="0"/>
</linearGradient>
<linearGradient id="paint12_linear_66_5135" x1="122.428" y1="239.01" x2="122.428" y2="328.183" gradientUnits="userSpaceOnUse">
<stop stop-color="white" stop-opacity="0.6"/>
<stop offset="1" stop-color="white" stop-opacity="0"/>
</linearGradient>
<linearGradient id="paint13_linear_66_5135" x1="122.428" y1="239.01" x2="122.428" y2="328.183" gradientUnits="userSpaceOnUse">
<stop stop-color="white" stop-opacity="0.2"/>
<stop offset="1" stop-color="white" stop-opacity="0"/>
</linearGradient>
<linearGradient id="paint14_linear_66_5135" x1="136.379" y1="179.113" x2="136.379" y2="271.646" gradientUnits="userSpaceOnUse">
<stop stop-color="white" stop-opacity="0.6"/>
<stop offset="1" stop-color="white" stop-opacity="0"/>
</linearGradient>
<linearGradient id="paint15_linear_66_5135" x1="136.379" y1="179.113" x2="136.379" y2="271.646" gradientUnits="userSpaceOnUse">
<stop stop-color="white" stop-opacity="0.2"/>
<stop offset="1" stop-color="white" stop-opacity="0"/>
</linearGradient>
<linearGradient id="paint16_linear_66_5135" x1="102.519" y1="137.117" x2="102.519" y2="259.06" gradientUnits="userSpaceOnUse">
<stop stop-color="white" stop-opacity="0.6"/>
<stop offset="1" stop-color="white" stop-opacity="0"/>
</linearGradient>
<linearGradient id="paint17_linear_66_5135" x1="102.519" y1="137.117" x2="102.519" y2="259.06" gradientUnits="userSpaceOnUse">
<stop stop-color="white" stop-opacity="0.2"/>
<stop offset="1" stop-color="white" stop-opacity="0"/>
</linearGradient>
</defs>
</svg>
