<svg width="26" height="26" viewBox="0 0 26 26" fill="none" xmlns="http://www.w3.org/2000/svg">
<circle cx="13" cy="13" r="13" fill="#D9D9D9"/>
<g clip-path="url(#clip0_133_1017)">
<path d="M13.0568 4L12.9463 4.4102V16.3121L13.0568 16.4326L18.1132 13.1669L13.0568 4Z" fill="#343434"/>
<path d="M13.0565 4L8 13.1669L13.0565 16.4326V10.6557V4Z" fill="#8C8C8C"/>
<path d="M13.0564 17.4786L12.9941 17.5615V21.8012L13.0564 21.9999L18.1159 14.2146L13.0564 17.4786Z" fill="#3C3C3B"/>
<path d="M13.0565 21.9999V17.4786L8 14.2146L13.0565 21.9999Z" fill="#8C8C8C"/>
<path d="M13.0566 16.4326L18.113 13.1669L13.0566 10.6557V16.4326Z" fill="#141414"/>
<path d="M8 13.1669L13.0565 16.4326V10.6557L8 13.1669Z" fill="#393939"/>
</g>
<defs>
<clipPath id="clip0_133_1017">
<rect width="10.116" height="18" fill="white" transform="translate(8 4)"/>
</clipPath>
</defs>
</svg>
