<svg width="8" height="7" viewBox="0 0 8 7" fill="none" xmlns="http://www.w3.org/2000/svg">
<path d="M5.28619 2.722C4.95019 2.722 4.65619 2.65667 4.40419 2.526C4.15219 2.39533 3.91885 2.246 3.70419 2.078C3.49885 1.91 3.30285 1.76067 3.11619 1.63C2.93885 1.49933 2.74752 1.434 2.54219 1.434C2.26219 1.434 2.04285 1.54133 1.88419 1.756C1.72552 1.96133 1.63685 2.246 1.61819 2.61H0.498188C0.516854 1.76067 0.708188 1.13533 1.07219 0.733999C1.43619 0.323333 1.89819 0.118 2.45819 0.118C2.79419 0.118 3.08819 0.183333 3.34019 0.314C3.60152 0.444666 3.83485 0.594 4.04019 0.762C4.24552 0.93 4.44152 1.084 4.62819 1.224C4.81485 1.35467 5.00619 1.42 5.20219 1.42C5.49152 1.42 5.71552 1.31267 5.87419 1.098C6.04219 0.874 6.13085 0.584666 6.14019 0.23H7.24619C7.23685 1.07 7.05019 1.69533 6.68619 2.106C6.32219 2.51667 5.85552 2.722 5.28619 2.722ZM5.28619 6.096C4.95019 6.096 4.65619 6.03067 4.40419 5.9C4.15219 5.76933 3.91885 5.62 3.70419 5.452C3.49885 5.284 3.30285 5.13467 3.11619 5.004C2.93885 4.864 2.74752 4.794 2.54219 4.794C2.26219 4.794 2.04285 4.90133 1.88419 5.116C1.72552 5.33067 1.63685 5.61533 1.61819 5.97H0.498188C0.516854 5.13 0.708188 4.50933 1.07219 4.108C1.43619 3.69733 1.89819 3.492 2.45819 3.492C2.79419 3.492 3.08819 3.55733 3.34019 3.688C3.60152 3.81867 3.83485 3.968 4.04019 4.136C4.24552 4.304 4.44152 4.45333 4.62819 4.584C4.81485 4.71467 5.00619 4.78 5.20219 4.78C5.49152 4.78 5.71552 4.67267 5.87419 4.458C6.04219 4.24333 6.13085 3.954 6.14019 3.59H7.24619C7.23685 4.43933 7.05019 5.06933 6.68619 5.48C6.32219 5.89067 5.85552 6.096 5.28619 6.096Z" fill="#33343E"/>
</svg>
