<svg width="18" height="18" viewBox="0 0 18 18" fill="none" xmlns="http://www.w3.org/2000/svg">
<path d="M7.01471 12.15V13.725C7.01471 14.1427 7.18204 14.5433 7.47989 14.8387C7.77774 15.1341 8.18172 15.3 8.60294 15.3L14.1618 15.3C14.583 15.3 14.987 15.1341 15.2848 14.8387C15.5827 14.5433 15.75 14.1427 15.75 13.725L15.75 4.275C15.75 3.85728 15.5827 3.45668 15.2848 3.16131C14.987 2.86594 14.583 2.7 14.1618 2.7L8.60294 2.7C8.18172 2.7 7.77774 2.86594 7.47989 3.16131C7.18204 3.45668 7.01471 3.85728 7.01471 4.275V5.85M11.7794 9L2.25 9M2.25 9L4.63235 11.3625M2.25 9L4.63235 6.6375" stroke="#333333" stroke-width="1.5" stroke-linecap="round" stroke-linejoin="round"/>
</svg>
