<svg width="22" height="22" viewBox="0 0 22 22" fill="none" xmlns="http://www.w3.org/2000/svg">
<path d="M20.0476 1L12.1904 7.23786L13.619 3.57231L20.0476 1Z" fill="#E17726" stroke="#E17726" stroke-width="0.25" stroke-linecap="round" stroke-linejoin="round"/>
<path d="M2.01172 1L9.74986 7.30217L8.3808 3.57231L2.01172 1Z" fill="#E27625" stroke="#E27625" stroke-width="0.25" stroke-linecap="round" stroke-linejoin="round"/>
<path d="M17.2498 15.5332L15.1665 18.9415L19.6308 20.292L20.8808 15.5975L17.2498 15.5332Z" fill="#E27625" stroke="#E27625" stroke-width="0.25" stroke-linecap="round" stroke-linejoin="round"/>
<path d="M1.17822 15.5975L2.42823 20.292L6.89254 18.9415L4.8092 15.5332L1.17822 15.5975Z" fill="#E27625" stroke="#E27625" stroke-width="0.25" stroke-linecap="round" stroke-linejoin="round"/>
<path d="M6.65479 9.6818L5.40479 11.6753L9.80957 11.8683L9.69052 6.72363L6.65479 9.6818Z" fill="#E27625" stroke="#E27625" stroke-width="0.25" stroke-linecap="round" stroke-linejoin="round"/>
<path d="M15.4047 9.6818L12.3095 6.72363L12.1904 11.9326L16.5952 11.7396L15.4047 9.6818Z" fill="#E27625" stroke="#E27625" stroke-width="0.25" stroke-linecap="round" stroke-linejoin="round"/>
<path d="M6.89307 18.9426L9.57165 17.5279L7.25021 15.5986L6.89307 18.9426Z" fill="#E27625" stroke="#E27625" stroke-width="0.25" stroke-linecap="round" stroke-linejoin="round"/>
<path d="M12.4883 17.5279L15.1669 18.9426L14.8097 15.5986L12.4883 17.5279Z" fill="#E27625" stroke="#E27625" stroke-width="0.25" stroke-linecap="round" stroke-linejoin="round"/>
<path d="M15.1669 18.9431L12.4883 17.5283L12.7264 19.3932V20.1649L15.1669 18.9431Z" fill="#D5BFB2" stroke="#D5BFB2" stroke-width="0.25" stroke-linecap="round" stroke-linejoin="round"/>
<path d="M6.89307 18.9423L9.39308 20.2284V19.4567L9.63118 17.5918L6.89307 18.9423Z" fill="#D5BFB2" stroke="#D5BFB2" stroke-width="0.25" stroke-linecap="round" stroke-linejoin="round"/>
<path d="M9.39282 14.3756L7.19043 13.6682L8.73806 12.8965L9.39282 14.3756Z" fill="#233447" stroke="#233447" stroke-width="0.25" stroke-linecap="round" stroke-linejoin="round"/>
<path d="M12.6074 14.3756L13.2622 12.8965L14.8098 13.6682L12.6074 14.3756Z" fill="#233447" stroke="#233447" stroke-width="0.25" stroke-linecap="round" stroke-linejoin="round"/>
<path d="M6.89292 18.9415L7.25006 15.5332L4.80957 15.5975L6.89292 18.9415Z" fill="#CC6228" stroke="#CC6228" stroke-width="0.25" stroke-linecap="round" stroke-linejoin="round"/>
<path d="M14.75 15.5332L15.1071 18.9415L17.1905 15.5975L14.75 15.5332Z" fill="#CC6228" stroke="#CC6228" stroke-width="0.25" stroke-linecap="round" stroke-linejoin="round"/>
<path d="M16.6548 11.7402L12.25 11.9332L12.6667 14.3769L13.3214 12.8978L14.8691 13.6695L16.6548 11.7402Z" fill="#CC6228" stroke="#CC6228" stroke-width="0.25" stroke-linecap="round" stroke-linejoin="round"/>
<path d="M7.19051 13.6695L8.73814 12.8978L9.3929 14.3769L9.80957 11.9332L5.40479 11.7402L7.19051 13.6695Z" fill="#CC6228" stroke="#CC6228" stroke-width="0.25" stroke-linecap="round" stroke-linejoin="round"/>
<path d="M5.40479 11.7402L7.25003 15.663L7.19051 13.7338L5.40479 11.7402Z" fill="#E27525" stroke="#E27525" stroke-width="0.25" stroke-linecap="round" stroke-linejoin="round"/>
<path d="M14.8691 13.6683L14.8096 15.5976L16.6548 11.6748L14.8691 13.6683Z" fill="#E27525" stroke="#E27525" stroke-width="0.25" stroke-linecap="round" stroke-linejoin="round"/>
<path d="M9.80974 11.9326L9.39307 14.3763L9.92878 17.2702L10.0478 13.476L9.80974 11.9326Z" fill="#E27525" stroke="#E27525" stroke-width="0.25" stroke-linecap="round" stroke-linejoin="round"/>
<path d="M12.1902 11.9326L11.9521 13.476L12.0712 17.2702L12.6069 14.3763L12.1902 11.9326Z" fill="#E27525" stroke="#E27525" stroke-width="0.25" stroke-linecap="round" stroke-linejoin="round"/>
<path d="M12.6075 14.3763L12.0718 17.2702L12.4289 17.5274L14.7504 15.5982L14.8099 13.6689L12.6075 14.3763Z" fill="#F5841F" stroke="#F5841F" stroke-width="0.25" stroke-linecap="round" stroke-linejoin="round"/>
<path d="M7.19043 13.6689L7.24995 15.5982L9.5714 17.5274L9.92854 17.2702L9.39282 14.3763L7.19043 13.6689Z" fill="#F5841F" stroke="#F5841F" stroke-width="0.25" stroke-linecap="round" stroke-linejoin="round"/>
<path d="M12.6669 20.2285V19.4568L12.4883 19.2639H9.51213L9.33356 19.4568V20.2285L6.89307 18.9424L7.78593 19.7141L9.51213 21.0002H12.5479L14.3336 19.7141L15.1669 18.9424L12.6669 20.2285Z" fill="#C0AC9D" stroke="#C0AC9D" stroke-width="0.25" stroke-linecap="round" stroke-linejoin="round"/>
<path d="M12.4883 17.5277L12.1311 17.2705H9.92874L9.57159 17.5277L9.3335 19.3927L9.51207 19.1997H12.4883L12.6668 19.3927L12.4883 17.5277Z" fill="#161616" stroke="#161616" stroke-width="0.25" stroke-linecap="round" stroke-linejoin="round"/>
<path d="M20.3455 7.68802L21.0002 4.21539L19.9883 1L12.4883 7.04494L15.405 9.68156L19.5121 10.9677L20.405 9.81018L19.9883 9.55295L20.6431 8.90987L20.1669 8.52402L20.8217 8.00956L20.3455 7.68802Z" fill="#763E1A" stroke="#763E1A" stroke-width="0.25" stroke-linecap="round" stroke-linejoin="round"/>
<path d="M1 4.21539L1.65477 7.68802L1.2381 8.00956L1.89286 8.52402L1.41667 8.90987L2.07143 9.55295L1.65477 9.87449L2.54763 11.032L6.65479 9.74587L9.57148 7.10925L2.01191 1L1 4.21539Z" fill="#763E1A" stroke="#763E1A" stroke-width="0.25" stroke-linecap="round" stroke-linejoin="round"/>
<path d="M19.512 10.9678L15.4048 9.68164L16.6548 11.6752L14.8096 15.598L17.2501 15.5337H20.881L19.512 10.9678Z" fill="#F5841F" stroke="#F5841F" stroke-width="0.25" stroke-linecap="round" stroke-linejoin="round"/>
<path d="M6.65444 9.68164L2.54728 10.9678L1.17822 15.5337H4.8092L7.24969 15.598L5.40444 11.6752L6.65444 9.68164Z" fill="#F5841F" stroke="#F5841F" stroke-width="0.25" stroke-linecap="round" stroke-linejoin="round"/>
<path d="M12.1904 11.9323L12.4285 7.04489L13.6189 3.57227H8.32129L9.51177 7.04489L9.74987 11.9323L9.86892 13.4757V17.2698H12.0713V13.4757L12.1904 11.9323Z" fill="#F5841F" stroke="#F5841F" stroke-width="0.25" stroke-linecap="round" stroke-linejoin="round"/>
</svg>
