<svg width="14" height="11" viewBox="0 0 14 11" fill="none" xmlns="http://www.w3.org/2000/svg">
<path d="M11.2788 2.21879H11.2102V1.50139C11.2102 0.915829 10.6812 0.512806 10.1417 0.586845L2.3575 1.65523C1.95579 1.71037 1.62296 2.01947 1.55949 2.42771C1.5348 2.43951 1.51037 2.45177 1.48621 2.46447C1.53559 2.05411 1.87017 1.69817 2.34181 1.63344L10.126 0.565055C10.7589 0.478187 11.2788 0.949164 11.2788 1.50139V2.21879ZM1.86701 3.51801C1.97184 3.44085 2.09435 3.38232 2.22995 3.34879L2.25362 3.34294C2.32807 3.3265 2.40622 3.31775 2.48726 3.31775L10.1112 3.31774H10.6607H11.8283C12.4056 3.31774 12.8357 3.76193 12.8357 4.26401V9.4991C12.8357 10.0012 12.4056 10.4454 11.8283 10.4454L10.2766 10.4454V10.4454L10.275 10.4454L10.2715 10.4454H2.48726C1.90997 10.4454 1.47989 10.0012 1.47989 9.49909V4.264C1.47989 3.96938 1.62798 3.6947 1.86701 3.51801Z" stroke="#41426A" stroke-width="1.09895"/>
</svg>
