<svg width="17" height="15" viewBox="0 0 17 15" fill="none" xmlns="http://www.w3.org/2000/svg">
<path d="M14.0312 3.02119V2.04198C14.0312 1.24272 13.3092 0.69262 12.5729 0.793678L12.674 1.5305L12.5729 0.793679L1.94789 2.25196C1.39957 2.32722 0.945284 2.74913 0.858643 3.30636C0.824945 3.32246 0.791599 3.33919 0.758625 3.35653C0.826023 2.79641 1.28271 2.31058 1.92646 2.22222L12.5515 0.763937C13.4154 0.645367 14.125 1.28822 14.125 2.04198V3.02119H14.0312ZM13.2812 4.52119H14.875C15.663 4.52119 16.25 5.12748 16.25 5.8128V12.9584C16.25 13.6437 15.663 14.25 14.875 14.25L12.757 14.25V14.25L12.7548 14.25L12.75 14.25H2.125C1.33703 14.25 0.75 13.6437 0.75 12.9584V5.81279C0.75 5.41037 0.952416 5.0352 1.27908 4.79404C1.42202 4.68897 1.589 4.60927 1.77379 4.56358L1.80607 4.55559C1.90771 4.53315 2.01437 4.5212 2.125 4.5212L12.5312 4.52119H13.2812Z" stroke="white" stroke-width="1.5"/>
</svg>
